<svg xmlns="http://www.w3.org/2000/svg" viewBox="0 0 720 320" fill="#ffffff" aria-hidden="true">
  <path d="M32 248V156c0-8 6-14 14-14h48l22-38c4-7 12-11 20-11h180c8 0 15 4 19 11l18 38h52c22 0 40 18 40 40v66H32z" />
  <rect x="420" y="132" width="268" height="116" rx="14" />
  <rect x="380" y="168" width="56" height="80" rx="8" />
  <circle cx="120" cy="252" r="36" />
  <circle cx="210" cy="252" r="36" />
  <circle cx="500" cy="252" r="40" />
  <circle cx="600" cy="252" r="40" />
  <path d="M648 132h40l32 48v68h-72V132z" />
</svg>
